<svg id="Layer_1" data-name="Layer 1" xmlns="http://www.w3.org/2000/svg" viewBox="0 0 462.31 648.92"><defs><style>.cls-1{fill:#fff;}.cls-1,.cls-2{stroke:#000;stroke-miterlimit:10;stroke-width:8px;}.cls-2{fill:none;}</style></defs><ellipse class="cls-1" cx="231.47" cy="40.34" rx="226.84" ry="36.34"/><line class="cls-2" x1="44.35" y1="611.84" x2="3.99" y2="39.27"/><line class="cls-2" x1="417.95" y1="612.91" x2="458.31" y2="40.34"/><ellipse class="cls-1" cx="231.73" cy="608.58" rx="186.8" ry="36.34"/><path class="cls-1" d="M21.33,239.09a7.52,7.52,0,0,1,4.23-7.3h0l4.59-2.2,4.6-2.21,4.59-2.21L43.93,223l4.6-2.2,4.59-2.21h0a14.09,14.09,0,0,1,9.54-1l3.83,1,8.77,2.21L84,223l8.78,2.21,8.77,2.21,8.77,2.21,8.77,2.2h0a30.78,30.78,0,0,0,17.35-.66l2.08-.69,10.65-3.57,10.65-3.56,10.66-3.57,10.65-3.56,10.65-3.57L202.46,209h0a34.42,34.42,0,0,1,21.36-.15l.47.15,11.18,3.57,11.17,3.57,11.18,3.56L269,223.31l11.18,3.56,11.17,3.57,1.54.49a35.82,35.82,0,0,0,19.45.66h0l9.82-2.42,9.82-2.42,9.81-2.41,9.82-2.42,9.82-2.42,9.81-2.41.53-.13a32.91,32.91,0,0,1,18.37.75h0l9.07,3,9.07,3.05,9.08,3,9.07,3,9.07,3,9.08,3.05,2.88,1a7.49,7.49,0,0,1,5.09,7.51L450,290.6l-3.6,51.59-3.61,51.59-3.6,51.59L435.63,497,432,548.55l-3.6,51.59-3.5,50a7.35,7.35,0,0,1-.84,3l-1.95,3.71a7.5,7.5,0,0,1-3.62,3.37l-10.61,4.65-.68.26-24.51,8a6.58,6.58,0,0,1-1,.25l-24.3,4.49-29.77,4.06-.48.05-28.4,2-28.36,2a4.87,4.87,0,0,1-.54,0l-29.32,0-26.36.59h-.57l-23.37-1.26-25.62-1.37-25.14-1.35a8,8,0,0,1-1-.12l-27.31-5.12-27-5.06a7.39,7.39,0,0,1-1.54-.46L59.59,662a7.49,7.49,0,0,1-3.28-2.72l-4-5.9a7.46,7.46,0,0,1-1.25-3.64l-3.64-50.23L43.66,547.3l-3.79-52.22-3.78-52.21-3.78-52.22-3.78-52.21-3.78-52.22Z" transform="translate(-6.29 -44)"/></svg>